HIERARCHY
ROOT Hips
{
	OFFSET 0.000000 0.000000 0.000000 
	CHANNELS 6 Xposition Yposition Zposition Zrotation Yrotation Xrotation
	JOINT LeftUpLeg
	{
		OFFSET 1.363060 -1.794630 0.839290 
		CHANNELS 3 Zrotation Yrotation Xrotation
		JOINT LeftLeg
		{
			OFFSET 2.448110 -6.726130 0.000000 
			CHANNELS 3 Zrotation Yrotation Xrotation
			JOINT LeftFoot
			{
				OFFSET 2.562200 -7.039590 0.000000 
				CHANNELS 3 Zrotation Yrotation Xrotation
				JOINT LeftToeBase
				{
					OFFSET 0.157640 -0.433110 2.322550 
					CHANNELS 3 Zrotation Yrotation Xrotation
					End Site
					{
						OFFSET 0.000000 0.000000 0.000000 
					}
				}
			}
		}
	}
	JOINT RightUpLeg
	{
		OFFSET -1.305520 -1.794630 0.839290 
		CHANNELS 3 Zrotation Yrotation Xrotation
		JOINT RightLeg
		{
			OFFSET -2.542530 -6.985550 0.000000 
			CHANNELS 3 Zrotation Yrotation Xrotation
			JOINT RightFoot
			{
				OFFSET -2.568260 -7.056230 0.000000 
				CHANNELS 3 Zrotation Yrotation Xrotation
				JOINT RightToeBase
				{
					OFFSET -0.164730 -0.452590 2.363150 
					CHANNELS 3 Zrotation Yrotation Xrotation
					End Site
					{
						OFFSET 0.000000 0.000000 0.000000 
					}
				}
			}
		}
	}
	JOINT Spine
	{
		OFFSET 0.028270 2.035590 -0.193380 
		CHANNELS 3 Zrotation Yrotation Xrotation
		JOINT Spine1
		{
			OFFSET 0.056720 2.048850 -0.042750 
			CHANNELS 3 Zrotation Yrotation Xrotation
			JOINT Neck1
			{
				OFFSET -0.054170 1.746240 0.172020 
				CHANNELS 3 Zrotation Yrotation Xrotation
				JOINT Head
				{
					OFFSET 0.104070 1.761360 -0.123970 
					CHANNELS 3 Zrotation Yrotation Xrotation
					End Site
					{
						OFFSET 0.000000 0.000000 0.000000 
					}
				}
			}
			JOINT LeftArm
			{
				OFFSET 3.362410 1.200890 -0.311210 
				CHANNELS 3 Zrotation Yrotation Xrotation
				JOINT LeftForeArm
				{
					OFFSET 4.983000 -0.000000 -0.000000 
					CHANNELS 3 Zrotation Yrotation Xrotation
					JOINT LeftHand
					{
						OFFSET 3.483560 -0.000000 -0.000000 
						CHANNELS 3 Zrotation Yrotation Xrotation
						JOINT LeftHandIndex1
						{
							OFFSET 0.715260 -0.000000 -0.000000 
							CHANNELS 3 Zrotation Yrotation Xrotation
							End Site
							{
								OFFSET 0.000000 0.000000 0.000000 
							}
						}
					}
				}
			}
			JOINT RightArm
			{
				OFFSET -3.136600 1.374050 -0.404650 
				CHANNELS 3 Zrotation Yrotation Xrotation
				JOINT RightForeArm
				{
					OFFSET -5.241900 -0.000000 -0.000000 
					CHANNELS 3 Zrotation Yrotation Xrotation
					JOINT RightHand
					{
						OFFSET -3.444170 -0.000000 -0.000000 
						CHANNELS 3 Zrotation Yrotation Xrotation
						JOINT RightHandIndex1
						{
							OFFSET -0.622530 -0.000000 -0.000000 
							CHANNELS 3 Zrotation Yrotation Xrotation
							End Site
							{
								OFFSET 0.000000 0.000000 0.000000 
							}
						}
					}
				}
			}
		}
	}
}
MOTION
Frames: 18
Frame Time: 0.041667
11.274628 22.215326 -6.157127 -2.590805 -3.499053 7.635024 -17.332241 -13.935864 -7.757298 -1.942144 7.113060 17.309217 -6.586787 34.421704 21.005540 1.250600 7.090100 19.982700 28.854980 12.649160 -6.431510 1.412798 -7.282078 19.599990 4.160892 -34.958889 24.738076 -1.079900 -6.605300 18.551300 -0.302825 1.632324 7.958034 -4.368604 0.397622 -14.398207 8.788792 -4.985016 27.481226 0.842100 -1.153100 8.640900 -54.998264 -16.093729 14.547429 26.327175 -26.917742 -6.397319 1.001909 0.437565 11.664328 -7.125000 0.000000 0.000000 36.841581 22.173787 -0.184727 -46.798988 46.993737 -19.782210 0.561488 -1.025413 -2.054678 7.125000 0.000000 0.000000 
11.277397 22.361471 -6.062542 -2.495479 -3.441122 7.425811 -17.146581 -14.686570 -8.068292 -2.054087 6.999164 16.964101 -6.823894 34.449589 20.073054 1.499000 7.733600 21.907900 28.705459 13.121977 -6.747018 1.625706 -6.965927 18.557152 4.154042 -35.333611 25.035120 -1.394900 -7.472000 21.121400 -0.737722 1.516777 8.976577 -4.254791 0.367904 -14.710240 9.027144 -5.067128 27.110159 0.879100 -1.179600 8.544400 -56.127433 -15.521268 14.643507 26.141498 -26.694085 -6.358831 1.019393 0.428459 12.870077 -7.125000 0.000000 0.000000 38.206861 21.067739 1.630729 -47.025877 46.981588 -19.921372 0.393944 -1.060143 -5.339099 7.125000 0.000000 0.000000 
11.282011 22.489161 -5.965189 -2.327181 -3.341942 7.144621 -17.027588 -15.536727 -8.264750 -2.152784 6.890910 16.605226 -6.995732 34.622202 19.501372 1.465000 7.649200 21.653600 28.449179 13.536120 -6.944634 1.892200 -6.577121 17.508848 4.610477 -35.608715 23.338506 -1.350600 -7.357000 20.777500 -1.402908 1.420372 10.055190 -4.104392 0.337014 -15.075513 9.202711 -5.006225 27.223580 0.907700 -1.103600 8.691500 -57.103712 -14.755340 15.347309 26.366692 -26.948762 -6.492786 1.029440 0.435973 12.898687 -7.125000 0.000000 0.000000 39.515812 20.071756 2.111048 -47.248434 47.081419 -20.176452 0.493045 -1.026593 -3.546143 7.125000 0.000000 0.000000 
11.285010 22.601624 -5.877064 -2.344117 -3.204478 6.923419 -16.696975 -16.369489 -8.563880 -2.224150 6.804106 16.214400 -7.213493 35.307415 19.324422 1.188200 6.917400 19.470900 28.388481 14.122367 -7.109305 2.154998 -6.199316 16.411761 5.164716 -36.711907 21.885941 -1.629100 -8.046600 22.855800 -1.856939 1.357963 10.750848 -4.076645 0.298260 -15.516210 9.349484 -5.096070 27.283867 0.917900 -1.111200 8.789100 -58.093625 -14.222588 15.934669 26.248065 -26.829436 -6.490116 1.053120 0.430239 12.757967 -7.125000 0.000000 0.000000 40.809315 18.950012 3.153884 -47.128965 46.993714 -20.162078 0.548248 -1.011481 -3.775730 7.125000 0.000000 0.000000 
11.285586 22.702669 -5.795628 -2.501151 -3.001399 6.752441 -16.239150 -17.215514 -8.947602 -2.319669 6.717046 15.914523 -7.986223 36.495136 17.397271 1.473800 7.671300 21.719900 28.384370 15.125104 -7.223428 2.450223 -5.800730 15.267301 6.054838 -38.414516 19.548726 -1.934600 -8.728600 24.949900 -1.642121 1.244531 11.320613 -4.049197 0.254752 -15.965851 9.480016 -5.147849 27.270256 0.967600 -1.129000 8.835000 -59.315937 -13.499715 16.558369 26.249761 -26.845352 -6.539902 1.069365 0.432431 12.554044 -7.125000 0.000000 0.000000 41.989922 17.869173 4.383295 -46.954007 46.851036 -20.040922 0.560059 -0.989960 -4.136220 7.125000 0.000000 0.000000 
11.285932 22.792178 -5.705311 -2.660241 -2.861408 6.525803 -15.827589 -18.125516 -9.225422 -2.450075 6.614903 15.736618 -9.116581 37.671955 13.826223 2.315600 9.494700 27.355500 28.300983 16.384820 -7.146722 2.761546 -5.345911 14.075389 7.166659 -40.142554 16.366400 -2.355100 -9.569500 27.593500 -1.190483 1.139511 12.254861 -3.984846 0.241764 -16.239853 9.654649 -5.183920 27.137350 1.051800 -1.151600 8.863100 -60.557616 -13.126625 17.180434 26.136047 -26.703501 -6.530383 1.098222 0.436129 12.265123 -7.125000 0.000000 0.000000 43.038772 16.882281 5.629017 -46.827223 46.714071 -19.943437 0.566864 -0.969550 -3.847894 7.125000 0.000000 0.000000 
11.285240 22.866231 -5.605767 -2.746978 -2.794471 6.313422 -15.488685 -18.864344 -9.534829 -2.584572 6.519836 15.617832 -9.998052 38.251842 10.368831 3.052200 10.779100 31.538400 28.138267 17.531932 -7.036011 3.036577 -4.874356 12.858536 8.065222 -41.529274 13.866723 -2.807700 -10.377000 30.206300 -1.060971 1.062699 13.197149 -3.901790 0.237241 -16.419184 9.384643 -5.131420 26.686799 0.944000 -1.169600 8.759200 -61.622046 -12.610807 18.175333 26.054228 -26.578983 -6.529651 1.118356 0.444722 12.092175 -7.125000 0.000000 0.000000 44.106490 15.877458 6.996398 -46.764427 46.612366 -19.918369 0.563195 -0.959291 -3.820981 7.125000 0.000000 0.000000 
11.285702 22.924251 -5.507837 -2.785883 -2.681208 6.148571 -15.173825 -19.567175 -9.921325 -2.727852 6.440045 15.552332 -10.677717 38.378824 6.835901 3.760100 11.834100 35.147700 27.889240 18.673650 -6.924964 3.301169 -4.370338 11.588519 8.923327 -42.712513 11.348793 -3.146800 -10.929000 32.040600 -1.116545 0.969700 13.783877 -3.838222 0.212867 -16.720572 9.695077 -5.112215 26.599346 1.048700 -1.136300 8.773100 -62.685962 -11.582164 19.238844 26.056993 -26.560909 -6.568978 1.109984 0.457469 12.684655 -7.125000 0.000000 0.000000 45.431865 14.950873 8.168478 -46.466005 46.415622 -19.757889 0.562020 -0.955354 -3.553938 7.125000 0.000000 0.000000 
11.289739 22.963700 -5.410368 -2.888007 -2.594276 5.985222 -14.778425 -20.505777 -10.248292 -2.863791 6.368923 15.504798 -11.260880 38.490834 3.375659 4.479500 12.772500 38.522900 27.604224 19.952627 -6.763020 3.568112 -3.821204 10.259565 9.817240 -43.662676 8.265814 -3.421500 -11.348000 33.462800 -0.962724 0.908786 14.436116 -3.826601 0.208267 -16.920675 10.178769 -5.141235 26.419781 1.227300 -1.128900 8.754200 -63.873557 -10.647418 19.999819 25.975290 -26.446870 -6.571604 1.110846 0.466715 13.373560 -7.125000 0.000000 0.000000 46.667009 14.254625 9.183777 -45.617114 45.899336 -19.172632 0.567654 -0.954059 -2.903894 7.125000 0.000000 0.000000 
11.295391 22.984924 -5.305633 -3.108420 -2.750000 5.972232 -14.214482 -21.688534 -10.539802 -3.034214 6.287479 15.487401 -11.676521 38.096071 -0.852172 5.409300 13.830400 42.562200 27.542203 20.275713 -6.929132 3.779011 -3.323525 9.007471 10.161163 -43.853536 6.521572 -3.770000 -11.847900 35.196100 -0.590860 0.983920 14.075407 -3.866256 0.255659 -17.441085 10.331835 -5.281968 26.531158 1.297200 -1.193800 8.736800 -65.085519 -9.542024 21.025562 25.694797 -26.117569 -6.484630 1.117499 0.473256 13.695113 -7.125000 0.000000 0.000000 47.848898 12.933861 10.783135 -44.952492 45.492618 -18.696049 0.567214 -0.946741 -2.244763 7.125000 0.000000 0.000000 
11.299543 22.995536 -5.192246 -3.206719 -2.826643 5.869463 -13.674105 -22.900971 -10.804963 -3.191225 6.203171 15.460628 -11.701978 37.178007 -4.489111 6.101400 14.525900 45.387400 27.418715 20.521074 -7.081410 3.976186 -2.842352 7.896895 10.674014 -44.010924 3.706036 -4.536500 -12.842000 38.779800 -0.685656 1.038953 14.931266 -3.906328 0.296139 -17.329890 10.463399 -5.461762 26.114044 1.311400 -1.292600 8.666500 -65.916810 -9.219364 22.056865 25.356126 -25.689807 -6.377118 1.139125 0.479617 13.746481 -7.125000 0.000000 0.000000 48.996442 11.932035 11.992444 -44.624361 45.227742 -18.459918 0.576649 -0.933102 -1.666773 7.125000 0.000000 0.000000 
11.301850 22.989884 -5.077130 -3.187981 -2.519552 5.863659 -13.252364 -23.973635 -11.165391 -3.245896 6.170249 15.332924 -11.738237 37.066919 -5.614485 6.087300 14.512400 45.331100 27.115748 20.481612 -7.449731 4.168275 -2.408857 6.982230 11.113994 -43.506316 -0.715076 -5.635100 -14.065100 43.499000 -0.709827 0.905685 15.284795 -3.822189 0.258307 -17.307061 10.591644 -5.572909 25.913191 1.337200 -1.346200 8.616800 -66.869862 -8.224528 23.217731 25.344446 -25.630371 -6.396478 1.144752 0.496058 13.757851 -7.125000 0.000000 0.000000 50.230545 10.803462 13.500898 -44.326091 44.988652 -18.252329 0.560603 -0.926217 -1.258311 7.125000 0.000000 0.000000 
11.306926 22.964738 -4.959591 -3.195757 -2.294284 5.971221 -12.795758 -25.148341 -11.537268 -3.291064 6.143443 15.221441 -11.699616 36.808069 -6.642883 6.106300 14.530600 45.407000 26.717422 20.560338 -7.948688 4.314395 -2.053091 6.184931 11.119468 -42.522243 -4.329783 -6.451000 -14.851600 46.766000 -0.406172 0.744272 15.366147 -3.666565 0.228027 -17.287252 10.542101 -5.498851 25.893163 1.331600 -1.316500 8.595600 -67.998912 -6.969968 24.234856 25.435461 -25.684326 -6.456413 1.141952 0.516461 13.827915 -7.125000 0.000000 0.000000 51.214130 9.704237 15.267129 -43.929674 44.696661 -17.985529 0.541792 -0.926978 -1.063193 7.125000 0.000000 0.000000 
11.313616 22.925520 -4.835938 -3.198403 -2.214603 6.051924 -12.316465 -26.273354 -11.891044 -3.342793 6.127839 15.190240 -11.456274 35.985103 -7.972680 6.212900 14.631500 45.830200 26.378861 20.707115 -8.390906 4.400426 -1.792904 5.559318 10.877003 -41.525733 -6.282386 -6.940600 -15.281600 48.649100 -0.438335 0.693566 15.572849 -3.607909 0.220529 -17.207604 10.594998 -5.437783 25.870704 1.342900 -1.275800 8.603900 -68.963004 -6.076297 25.238681 25.411040 -25.619330 -6.476754 1.143519 0.534629 13.599429 -7.125000 0.000000 0.000000 52.231803 8.614071 16.894583 -43.594603 44.450290 -17.792838 0.541214 -0.924629 -0.983972 7.125000 0.000000 0.000000 
11.318230 22.872691 -4.712863 -3.270949 -2.098262 6.123648 -11.732134 -27.262367 -12.283605 -3.386877 6.126177 15.187843 -11.160282 35.044309 -9.280611 6.463300 14.862800 46.814100 26.213087 20.799104 -8.817969 4.458245 -1.609246 5.103996 10.527953 -40.454924 -7.658447 -7.397300 -15.657500 50.361400 -0.697072 0.720728 15.656248 -3.683681 0.213158 -17.176092 10.787095 -5.529147 25.853858 1.374500 -1.292300 8.610700 -69.773276 -5.035803 26.500061 25.510317 -25.706888 -6.558836 1.140296 0.554904 12.962555 -7.125000 0.000000 0.000000 53.598483 7.381901 18.160235 -43.460755 44.330937 -17.731817 0.538156 -0.914551 -0.224499 7.125000 0.000000 0.000000 
11.321459 22.802905 -4.587019 -3.430552 -2.040414 6.274890 -11.065542 -28.277474 -12.686848 -3.428008 6.121756 15.184373 -10.811984 33.994585 -10.611562 6.846800 15.201500 48.292500 26.107763 20.977084 -9.295224 4.498459 -1.489912 4.753792 10.151919 -39.418735 -8.683637 -7.800000 -15.970200 51.839200 -0.444973 0.730694 15.204458 -3.709322 0.225815 -17.314626 10.894232 -5.646571 25.888666 1.401300 -1.341600 8.548900 -70.813241 -3.452835 27.713021 25.748728 -25.944223 -6.699630 1.126598 0.579815 12.293658 -7.125000 0.000000 0.000000 54.855755 5.879941 19.593407 -43.498771 44.316120 -17.759067 0.519006 -0.904794 0.868568 7.125000 0.000000 0.000000 
11.326419 22.719740 -4.453792 -3.510794 -2.029479 6.389670 -10.552118 -29.114787 -13.188242 -3.396348 6.197257 15.271804 -10.594210 33.433439 -10.677166 6.625900 15.008600 47.444600 25.796622 21.049517 -9.422716 4.559595 -1.095577 3.765091 10.049364 -39.156340 -8.937214 -8.063800 -16.166000 52.792300 -0.161549 0.720916 15.294318 -3.702407 0.256812 -17.127335 11.247517 -5.837492 25.522996 1.508800 -1.438800 8.405100 -71.884843 -2.097590 28.604914 26.079361 -26.274067 -6.882037 1.110853 0.606009 11.709963 -7.125000 0.000000 0.000000 55.803350 4.608910 21.157063 -43.504643 44.269047 -17.787250 0.514168 -0.898597 1.176378 7.125000 0.000000 0.000000 
11.336570 22.626539 -4.316875 -3.393189 -2.087166 6.535015 -10.284996 -29.760926 -13.657034 -3.365750 6.255269 15.270004 -10.397108 33.001874 -10.228903 6.116800 14.540600 45.448600 25.359399 21.157555 -9.675707 4.569247 -0.886521 3.154422 10.103348 -39.444675 -7.976463 -8.024500 -16.137200 52.650800 -0.354335 0.777802 15.114055 -3.661744 0.292937 -17.014410 11.549731 -5.683497 25.930827 1.649000 -1.315600 8.578100 -72.909545 -0.531705 29.442951 26.482397 -26.691269 -7.108773 1.094667 0.625491 11.203934 -7.125000 0.000000 0.000000 56.832062 3.206783 22.766939 -43.483915 44.220088 -17.822588 0.522845 -0.886557 1.022025 7.125000 0.000000 0.000000 
